<svg xmlns="http://www.w3.org/2000/svg" viewBox="0 0 100 100" height="100" width="100">
  <defs>
    <linearGradient id="g1" x1="0" y1="0" x2="100" y2="100">
      <stop offset="0" stop-color="#fcbb04" stop-opacity="" />
      <stop offset="1" stop-color="#fffc00" stop-opacity="" />
    </linearGradient>

    <filter id="f1">
      <feGaussianBlur in="SourceGraphic" stdDeviation="2" result="r1" />
      <feMerge>
        <feMergeNode in="SourceGraphic" />
        <feMergeNode in="r1" />
      </feMerge>
    </filter>
  </defs>
  <g>

    <circle cx="50" cy="50" r="20" fill="url(#g1)" transform-origin="50 50">
      <animate attributeType="XML" attributeName="fill-opacity" from="1" to="0" dur="2s" repeatCount="indefinite" />
      <animate attributeType="XML" attributeName="r" from="20" to="25" dur="2s" repeatCount="indefinite" />
    </circle>
    <circle cx="50" cy="50" r="20" fill="url(#g1)" filter="url(#f1)" />

    <g>
      <path d="
        M30 70 H42 A5 5 0 0 0 40 60 H33 
        M40 60 A10 10 0 0 0 20 60 A10 10 0 0 0 40 60 Z
        " fill="#4c9beb">
        <animateTransform attributeName="transform" attributeType="XML" type="translate" from="0" to="-5" dur="1s"
          fill="freeze" />
      </path>
      <path d="
        M76 60 H70 A3 3 0 0 1 70 54 H76
        M71 55 A5 5 0 1 1 81 55 A5 5 0 0 1 71 55 Z
        " fill="#4c9beb">
        <animateTransform attributeName="transform" attributeType="XML" type="translate" from="0" to="5" dur="1s"
          fill="freeze" />
      </path>
      <animateTransform id="a1" attributeName="transform" attributeType="XML" type="translate" from="0" to="-10"
        dur="4s" begin="0s;a3.end" />
      <animateTransform id="a2" attributeName="transform" attributeType="XML" type="translate" from="-10" to="10"
        dur="4s" begin="a1.end" />
      <animateTransform id="a3" attributeName="transform" attributeType="XML" type="translate" from="10" to="0" dur="4s"
        begin="a2.end" />
    </g>

  </g>
</svg>